<svg xmlns="http://www.w3.org/2000/svg" width="1920" height="1080" viewBox="0 0 1920 1080">
<defs>
  <linearGradient id="bg" x1="0" y1="0" x2="0" y2="1">
    <stop offset="0" stop-color="#101010"/><stop offset="1" stop-color="#1a1a1a"/>
  </linearGradient>
  <pattern id="grid" width="48" height="48" patternUnits="userSpaceOnUse">
    <path d="M48 0H0V48" fill="none" stroke="rgba(255,255,255,0.05)" stroke-width="1"/>
  </pattern>
  
</defs>
<rect width="1920" height="1080" fill="url(#bg)"/>
<rect width="1920" height="1080" fill="url(#grid)"/>
<line x1="300" y1="150" x2="300" y2="900" stroke="rgba(255,255,255,0.16)" stroke-width="1.5" stroke-dasharray="10 12"/>
<circle cx="300" cy="120" r="30" fill="none" stroke="rgba(255,255,255,0.30)" stroke-width="2"/>
<text x="300" y="129" font-family="Helvetica,Arial" font-size="26" fill="rgba(255,255,255,0.30)" text-anchor="middle">A</text>
<line x1="700" y1="150" x2="700" y2="900" stroke="rgba(255,255,255,0.16)" stroke-width="1.5" stroke-dasharray="10 12"/>
<circle cx="700" cy="120" r="30" fill="none" stroke="rgba(255,255,255,0.30)" stroke-width="2"/>
<text x="700" y="129" font-family="Helvetica,Arial" font-size="26" fill="rgba(255,255,255,0.30)" text-anchor="middle">B</text>
<line x1="1100" y1="150" x2="1100" y2="900" stroke="rgba(255,255,255,0.16)" stroke-width="1.5" stroke-dasharray="10 12"/>
<circle cx="1100" cy="120" r="30" fill="none" stroke="rgba(255,255,255,0.30)" stroke-width="2"/>
<text x="1100" y="129" font-family="Helvetica,Arial" font-size="26" fill="rgba(255,255,255,0.30)" text-anchor="middle">C</text>
<line x1="1500" y1="150" x2="1500" y2="900" stroke="rgba(255,255,255,0.16)" stroke-width="1.5" stroke-dasharray="10 12"/>
<circle cx="1500" cy="120" r="30" fill="none" stroke="rgba(255,255,255,0.30)" stroke-width="2"/>
<text x="1500" y="129" font-family="Helvetica,Arial" font-size="26" fill="rgba(255,255,255,0.30)" text-anchor="middle">D</text>
<rect x="240" y="400" width="1320" height="44" fill="none" stroke="rgba(255,255,255,0.30)" stroke-width="2.5"/>
<line x1="250" y1="444" x2="264" y2="400" stroke="rgba(255,255,255,0.16)" stroke-width="1"/>
<line x1="276" y1="444" x2="290" y2="400" stroke="rgba(255,255,255,0.16)" stroke-width="1"/>
<line x1="302" y1="444" x2="316" y2="400" stroke="rgba(255,255,255,0.16)" stroke-width="1"/>
<line x1="328" y1="444" x2="342" y2="400" stroke="rgba(255,255,255,0.16)" stroke-width="1"/>
<line x1="354" y1="444" x2="368" y2="400" stroke="rgba(255,255,255,0.16)" stroke-width="1"/>
<line x1="380" y1="444" x2="394" y2="400" stroke="rgba(255,255,255,0.16)" stroke-width="1"/>
<line x1="406" y1="444" x2="420" y2="400" stroke="rgba(255,255,255,0.16)" stroke-width="1"/>
<line x1="432" y1="444" x2="446" y2="400" stroke="rgba(255,255,255,0.16)" stroke-width="1"/>
<line x1="458" y1="444" x2="472" y2="400" stroke="rgba(255,255,255,0.16)" stroke-width="1"/>
<line x1="484" y1="444" x2="498" y2="400" stroke="rgba(255,255,255,0.16)" stroke-width="1"/>
<line x1="510" y1="444" x2="524" y2="400" stroke="rgba(255,255,255,0.16)" stroke-width="1"/>
<line x1="536" y1="444" x2="550" y2="400" stroke="rgba(255,255,255,0.16)" stroke-width="1"/>
<line x1="562" y1="444" x2="576" y2="400" stroke="rgba(255,255,255,0.16)" stroke-width="1"/>
<line x1="588" y1="444" x2="602" y2="400" stroke="rgba(255,255,255,0.16)" stroke-width="1"/>
<line x1="614" y1="444" x2="628" y2="400" stroke="rgba(255,255,255,0.16)" stroke-width="1"/>
<line x1="640" y1="444" x2="654" y2="400" stroke="rgba(255,255,255,0.16)" stroke-width="1"/>
<line x1="666" y1="444" x2="680" y2="400" stroke="rgba(255,255,255,0.16)" stroke-width="1"/>
<line x1="692" y1="444" x2="706" y2="400" stroke="rgba(255,255,255,0.16)" stroke-width="1"/>
<line x1="718" y1="444" x2="732" y2="400" stroke="rgba(255,255,255,0.16)" stroke-width="1"/>
<line x1="744" y1="444" x2="758" y2="400" stroke="rgba(255,255,255,0.16)" stroke-width="1"/>
<line x1="770" y1="444" x2="784" y2="400" stroke="rgba(255,255,255,0.16)" stroke-width="1"/>
<line x1="796" y1="444" x2="810" y2="400" stroke="rgba(255,255,255,0.16)" stroke-width="1"/>
<line x1="822" y1="444" x2="836" y2="400" stroke="rgba(255,255,255,0.16)" stroke-width="1"/>
<line x1="848" y1="444" x2="862" y2="400" stroke="rgba(255,255,255,0.16)" stroke-width="1"/>
<line x1="874" y1="444" x2="888" y2="400" stroke="rgba(255,255,255,0.16)" stroke-width="1"/>
<line x1="900" y1="444" x2="914" y2="400" stroke="rgba(255,255,255,0.16)" stroke-width="1"/>
<line x1="926" y1="444" x2="940" y2="400" stroke="rgba(255,255,255,0.16)" stroke-width="1"/>
<line x1="952" y1="444" x2="966" y2="400" stroke="rgba(255,255,255,0.16)" stroke-width="1"/>
<line x1="978" y1="444" x2="992" y2="400" stroke="rgba(255,255,255,0.16)" stroke-width="1"/>
<line x1="1004" y1="444" x2="1018" y2="400" stroke="rgba(255,255,255,0.16)" stroke-width="1"/>
<line x1="1030" y1="444" x2="1044" y2="400" stroke="rgba(255,255,255,0.16)" stroke-width="1"/>
<line x1="1056" y1="444" x2="1070" y2="400" stroke="rgba(255,255,255,0.16)" stroke-width="1"/>
<line x1="1082" y1="444" x2="1096" y2="400" stroke="rgba(255,255,255,0.16)" stroke-width="1"/>
<line x1="1108" y1="444" x2="1122" y2="400" stroke="rgba(255,255,255,0.16)" stroke-width="1"/>
<line x1="1134" y1="444" x2="1148" y2="400" stroke="rgba(255,255,255,0.16)" stroke-width="1"/>
<line x1="1160" y1="444" x2="1174" y2="400" stroke="rgba(255,255,255,0.16)" stroke-width="1"/>
<line x1="1186" y1="444" x2="1200" y2="400" stroke="rgba(255,255,255,0.16)" stroke-width="1"/>
<line x1="1212" y1="444" x2="1226" y2="400" stroke="rgba(255,255,255,0.16)" stroke-width="1"/>
<line x1="1238" y1="444" x2="1252" y2="400" stroke="rgba(255,255,255,0.16)" stroke-width="1"/>
<line x1="1264" y1="444" x2="1278" y2="400" stroke="rgba(255,255,255,0.16)" stroke-width="1"/>
<line x1="1290" y1="444" x2="1304" y2="400" stroke="rgba(255,255,255,0.16)" stroke-width="1"/>
<line x1="1316" y1="444" x2="1330" y2="400" stroke="rgba(255,255,255,0.16)" stroke-width="1"/>
<line x1="1342" y1="444" x2="1356" y2="400" stroke="rgba(255,255,255,0.16)" stroke-width="1"/>
<line x1="1368" y1="444" x2="1382" y2="400" stroke="rgba(255,255,255,0.16)" stroke-width="1"/>
<line x1="1394" y1="444" x2="1408" y2="400" stroke="rgba(255,255,255,0.16)" stroke-width="1"/>
<line x1="1420" y1="444" x2="1434" y2="400" stroke="rgba(255,255,255,0.16)" stroke-width="1"/>
<line x1="1446" y1="444" x2="1460" y2="400" stroke="rgba(255,255,255,0.16)" stroke-width="1"/>
<line x1="1472" y1="444" x2="1486" y2="400" stroke="rgba(255,255,255,0.16)" stroke-width="1"/>
<line x1="1498" y1="444" x2="1512" y2="400" stroke="rgba(255,255,255,0.16)" stroke-width="1"/>
<line x1="1524" y1="444" x2="1538" y2="400" stroke="rgba(255,255,255,0.16)" stroke-width="1"/>
<rect x="240" y="620" width="1320" height="44" fill="none" stroke="rgba(255,255,255,0.30)" stroke-width="2.5"/>
<line x1="250" y1="664" x2="264" y2="620" stroke="rgba(255,255,255,0.16)" stroke-width="1"/>
<line x1="276" y1="664" x2="290" y2="620" stroke="rgba(255,255,255,0.16)" stroke-width="1"/>
<line x1="302" y1="664" x2="316" y2="620" stroke="rgba(255,255,255,0.16)" stroke-width="1"/>
<line x1="328" y1="664" x2="342" y2="620" stroke="rgba(255,255,255,0.16)" stroke-width="1"/>
<line x1="354" y1="664" x2="368" y2="620" stroke="rgba(255,255,255,0.16)" stroke-width="1"/>
<line x1="380" y1="664" x2="394" y2="620" stroke="rgba(255,255,255,0.16)" stroke-width="1"/>
<line x1="406" y1="664" x2="420" y2="620" stroke="rgba(255,255,255,0.16)" stroke-width="1"/>
<line x1="432" y1="664" x2="446" y2="620" stroke="rgba(255,255,255,0.16)" stroke-width="1"/>
<line x1="458" y1="664" x2="472" y2="620" stroke="rgba(255,255,255,0.16)" stroke-width="1"/>
<line x1="484" y1="664" x2="498" y2="620" stroke="rgba(255,255,255,0.16)" stroke-width="1"/>
<line x1="510" y1="664" x2="524" y2="620" stroke="rgba(255,255,255,0.16)" stroke-width="1"/>
<line x1="536" y1="664" x2="550" y2="620" stroke="rgba(255,255,255,0.16)" stroke-width="1"/>
<line x1="562" y1="664" x2="576" y2="620" stroke="rgba(255,255,255,0.16)" stroke-width="1"/>
<line x1="588" y1="664" x2="602" y2="620" stroke="rgba(255,255,255,0.16)" stroke-width="1"/>
<line x1="614" y1="664" x2="628" y2="620" stroke="rgba(255,255,255,0.16)" stroke-width="1"/>
<line x1="640" y1="664" x2="654" y2="620" stroke="rgba(255,255,255,0.16)" stroke-width="1"/>
<line x1="666" y1="664" x2="680" y2="620" stroke="rgba(255,255,255,0.16)" stroke-width="1"/>
<line x1="692" y1="664" x2="706" y2="620" stroke="rgba(255,255,255,0.16)" stroke-width="1"/>
<line x1="718" y1="664" x2="732" y2="620" stroke="rgba(255,255,255,0.16)" stroke-width="1"/>
<line x1="744" y1="664" x2="758" y2="620" stroke="rgba(255,255,255,0.16)" stroke-width="1"/>
<line x1="770" y1="664" x2="784" y2="620" stroke="rgba(255,255,255,0.16)" stroke-width="1"/>
<line x1="796" y1="664" x2="810" y2="620" stroke="rgba(255,255,255,0.16)" stroke-width="1"/>
<line x1="822" y1="664" x2="836" y2="620" stroke="rgba(255,255,255,0.16)" stroke-width="1"/>
<line x1="848" y1="664" x2="862" y2="620" stroke="rgba(255,255,255,0.16)" stroke-width="1"/>
<line x1="874" y1="664" x2="888" y2="620" stroke="rgba(255,255,255,0.16)" stroke-width="1"/>
<line x1="900" y1="664" x2="914" y2="620" stroke="rgba(255,255,255,0.16)" stroke-width="1"/>
<line x1="926" y1="664" x2="940" y2="620" stroke="rgba(255,255,255,0.16)" stroke-width="1"/>
<line x1="952" y1="664" x2="966" y2="620" stroke="rgba(255,255,255,0.16)" stroke-width="1"/>
<line x1="978" y1="664" x2="992" y2="620" stroke="rgba(255,255,255,0.16)" stroke-width="1"/>
<line x1="1004" y1="664" x2="1018" y2="620" stroke="rgba(255,255,255,0.16)" stroke-width="1"/>
<line x1="1030" y1="664" x2="1044" y2="620" stroke="rgba(255,255,255,0.16)" stroke-width="1"/>
<line x1="1056" y1="664" x2="1070" y2="620" stroke="rgba(255,255,255,0.16)" stroke-width="1"/>
<line x1="1082" y1="664" x2="1096" y2="620" stroke="rgba(255,255,255,0.16)" stroke-width="1"/>
<line x1="1108" y1="664" x2="1122" y2="620" stroke="rgba(255,255,255,0.16)" stroke-width="1"/>
<line x1="1134" y1="664" x2="1148" y2="620" stroke="rgba(255,255,255,0.16)" stroke-width="1"/>
<line x1="1160" y1="664" x2="1174" y2="620" stroke="rgba(255,255,255,0.16)" stroke-width="1"/>
<line x1="1186" y1="664" x2="1200" y2="620" stroke="rgba(255,255,255,0.16)" stroke-width="1"/>
<line x1="1212" y1="664" x2="1226" y2="620" stroke="rgba(255,255,255,0.16)" stroke-width="1"/>
<line x1="1238" y1="664" x2="1252" y2="620" stroke="rgba(255,255,255,0.16)" stroke-width="1"/>
<line x1="1264" y1="664" x2="1278" y2="620" stroke="rgba(255,255,255,0.16)" stroke-width="1"/>
<line x1="1290" y1="664" x2="1304" y2="620" stroke="rgba(255,255,255,0.16)" stroke-width="1"/>
<line x1="1316" y1="664" x2="1330" y2="620" stroke="rgba(255,255,255,0.16)" stroke-width="1"/>
<line x1="1342" y1="664" x2="1356" y2="620" stroke="rgba(255,255,255,0.16)" stroke-width="1"/>
<line x1="1368" y1="664" x2="1382" y2="620" stroke="rgba(255,255,255,0.16)" stroke-width="1"/>
<line x1="1394" y1="664" x2="1408" y2="620" stroke="rgba(255,255,255,0.16)" stroke-width="1"/>
<line x1="1420" y1="664" x2="1434" y2="620" stroke="rgba(255,255,255,0.16)" stroke-width="1"/>
<line x1="1446" y1="664" x2="1460" y2="620" stroke="rgba(255,255,255,0.16)" stroke-width="1"/>
<line x1="1472" y1="664" x2="1486" y2="620" stroke="rgba(255,255,255,0.16)" stroke-width="1"/>
<line x1="1498" y1="664" x2="1512" y2="620" stroke="rgba(255,255,255,0.16)" stroke-width="1"/>
<line x1="1524" y1="664" x2="1538" y2="620" stroke="rgba(255,255,255,0.16)" stroke-width="1"/>
<rect x="274" y="444" width="52" height="176" fill="none" stroke="rgba(255,255,255,0.30)" stroke-width="2.5"/>
<rect x="274" y="664" width="52" height="176" fill="none" stroke="rgba(255,255,255,0.30)" stroke-width="2.5"/>
<rect x="274" y="220" width="52" height="180" fill="none" stroke="rgba(255,255,255,0.30)" stroke-width="2.5"/>
<rect x="674" y="444" width="52" height="176" fill="none" stroke="rgba(255,255,255,0.30)" stroke-width="2.5"/>
<rect x="674" y="664" width="52" height="176" fill="none" stroke="rgba(255,255,255,0.30)" stroke-width="2.5"/>
<rect x="674" y="220" width="52" height="180" fill="none" stroke="rgba(255,255,255,0.30)" stroke-width="2.5"/>
<rect x="1074" y="444" width="52" height="176" fill="none" stroke="rgba(255,255,255,0.30)" stroke-width="2.5"/>
<rect x="1074" y="664" width="52" height="176" fill="none" stroke="rgba(255,255,255,0.30)" stroke-width="2.5"/>
<rect x="1074" y="220" width="52" height="180" fill="none" stroke="rgba(255,255,255,0.30)" stroke-width="2.5"/>
<rect x="1474" y="444" width="52" height="176" fill="none" stroke="rgba(255,255,255,0.30)" stroke-width="2.5"/>
<rect x="1474" y="664" width="52" height="176" fill="none" stroke="rgba(255,255,255,0.30)" stroke-width="2.5"/>
<rect x="1474" y="220" width="52" height="180" fill="none" stroke="rgba(255,255,255,0.30)" stroke-width="2.5"/>
<line x1="250" y1="418" x2="1550" y2="418" stroke="rgba(232,72,28,0.72)" stroke-width="2.5" stroke-dasharray="26 14"/>
<line x1="250" y1="640" x2="1550" y2="640" stroke="rgba(232,72,28,0.72)" stroke-width="2.5" stroke-dasharray="26 14"/>
<line x1="160" y1="840" x2="1760" y2="840" stroke="rgba(255,255,255,0.30)" stroke-width="3"/>
<polyline points="210,930 240,840 360,840 390,930 210,930" fill="none" stroke="rgba(255,255,255,0.30)" stroke-width="2.5"/>
<line x1="230" y1="910" x2="370" y2="910" stroke="rgba(232,72,28,0.72)" stroke-width="2" stroke-dasharray="16 10"/>
<polyline points="610,930 640,840 760,840 790,930 610,930" fill="none" stroke="rgba(255,255,255,0.30)" stroke-width="2.5"/>
<line x1="630" y1="910" x2="770" y2="910" stroke="rgba(232,72,28,0.72)" stroke-width="2" stroke-dasharray="16 10"/>
<polyline points="1010,930 1040,840 1160,840 1190,930 1010,930" fill="none" stroke="rgba(255,255,255,0.30)" stroke-width="2.5"/>
<line x1="1030" y1="910" x2="1170" y2="910" stroke="rgba(232,72,28,0.72)" stroke-width="2" stroke-dasharray="16 10"/>
<polyline points="1410,930 1440,840 1560,840 1590,930 1410,930" fill="none" stroke="rgba(255,255,255,0.30)" stroke-width="2.5"/>
<line x1="1430" y1="910" x2="1570" y2="910" stroke="rgba(232,72,28,0.72)" stroke-width="2" stroke-dasharray="16 10"/>
<line x1="170" y1="840" x2="152" y2="862" stroke="rgba(255,255,255,0.16)" stroke-width="1.2"/>
<line x1="204" y1="840" x2="186" y2="862" stroke="rgba(255,255,255,0.16)" stroke-width="1.2"/>
<line x1="238" y1="840" x2="220" y2="862" stroke="rgba(255,255,255,0.16)" stroke-width="1.2"/>
<line x1="272" y1="840" x2="254" y2="862" stroke="rgba(255,255,255,0.16)" stroke-width="1.2"/>
<line x1="306" y1="840" x2="288" y2="862" stroke="rgba(255,255,255,0.16)" stroke-width="1.2"/>
<line x1="340" y1="840" x2="322" y2="862" stroke="rgba(255,255,255,0.16)" stroke-width="1.2"/>
<line x1="374" y1="840" x2="356" y2="862" stroke="rgba(255,255,255,0.16)" stroke-width="1.2"/>
<line x1="408" y1="840" x2="390" y2="862" stroke="rgba(255,255,255,0.16)" stroke-width="1.2"/>
<line x1="442" y1="840" x2="424" y2="862" stroke="rgba(255,255,255,0.16)" stroke-width="1.2"/>
<line x1="476" y1="840" x2="458" y2="862" stroke="rgba(255,255,255,0.16)" stroke-width="1.2"/>
<line x1="510" y1="840" x2="492" y2="862" stroke="rgba(255,255,255,0.16)" stroke-width="1.2"/>
<line x1="544" y1="840" x2="526" y2="862" stroke="rgba(255,255,255,0.16)" stroke-width="1.2"/>
<line x1="578" y1="840" x2="560" y2="862" stroke="rgba(255,255,255,0.16)" stroke-width="1.2"/>
<line x1="612" y1="840" x2="594" y2="862" stroke="rgba(255,255,255,0.16)" stroke-width="1.2"/>
<line x1="646" y1="840" x2="628" y2="862" stroke="rgba(255,255,255,0.16)" stroke-width="1.2"/>
<line x1="680" y1="840" x2="662" y2="862" stroke="rgba(255,255,255,0.16)" stroke-width="1.2"/>
<line x1="714" y1="840" x2="696" y2="862" stroke="rgba(255,255,255,0.16)" stroke-width="1.2"/>
<line x1="748" y1="840" x2="730" y2="862" stroke="rgba(255,255,255,0.16)" stroke-width="1.2"/>
<line x1="782" y1="840" x2="764" y2="862" stroke="rgba(255,255,255,0.16)" stroke-width="1.2"/>
<line x1="816" y1="840" x2="798" y2="862" stroke="rgba(255,255,255,0.16)" stroke-width="1.2"/>
<line x1="850" y1="840" x2="832" y2="862" stroke="rgba(255,255,255,0.16)" stroke-width="1.2"/>
<line x1="884" y1="840" x2="866" y2="862" stroke="rgba(255,255,255,0.16)" stroke-width="1.2"/>
<line x1="918" y1="840" x2="900" y2="862" stroke="rgba(255,255,255,0.16)" stroke-width="1.2"/>
<line x1="952" y1="840" x2="934" y2="862" stroke="rgba(255,255,255,0.16)" stroke-width="1.2"/>
<line x1="986" y1="840" x2="968" y2="862" stroke="rgba(255,255,255,0.16)" stroke-width="1.2"/>
<line x1="1020" y1="840" x2="1002" y2="862" stroke="rgba(255,255,255,0.16)" stroke-width="1.2"/>
<line x1="1054" y1="840" x2="1036" y2="862" stroke="rgba(255,255,255,0.16)" stroke-width="1.2"/>
<line x1="1088" y1="840" x2="1070" y2="862" stroke="rgba(255,255,255,0.16)" stroke-width="1.2"/>
<line x1="1122" y1="840" x2="1104" y2="862" stroke="rgba(255,255,255,0.16)" stroke-width="1.2"/>
<line x1="1156" y1="840" x2="1138" y2="862" stroke="rgba(255,255,255,0.16)" stroke-width="1.2"/>
<line x1="1190" y1="840" x2="1172" y2="862" stroke="rgba(255,255,255,0.16)" stroke-width="1.2"/>
<line x1="1224" y1="840" x2="1206" y2="862" stroke="rgba(255,255,255,0.16)" stroke-width="1.2"/>
<line x1="1258" y1="840" x2="1240" y2="862" stroke="rgba(255,255,255,0.16)" stroke-width="1.2"/>
<line x1="1292" y1="840" x2="1274" y2="862" stroke="rgba(255,255,255,0.16)" stroke-width="1.2"/>
<line x1="1326" y1="840" x2="1308" y2="862" stroke="rgba(255,255,255,0.16)" stroke-width="1.2"/>
<line x1="1360" y1="840" x2="1342" y2="862" stroke="rgba(255,255,255,0.16)" stroke-width="1.2"/>
<line x1="1394" y1="840" x2="1376" y2="862" stroke="rgba(255,255,255,0.16)" stroke-width="1.2"/>
<line x1="1428" y1="840" x2="1410" y2="862" stroke="rgba(255,255,255,0.16)" stroke-width="1.2"/>
<line x1="1462" y1="840" x2="1444" y2="862" stroke="rgba(255,255,255,0.16)" stroke-width="1.2"/>
<line x1="1496" y1="840" x2="1478" y2="862" stroke="rgba(255,255,255,0.16)" stroke-width="1.2"/>
<line x1="1530" y1="840" x2="1512" y2="862" stroke="rgba(255,255,255,0.16)" stroke-width="1.2"/>
<line x1="1564" y1="840" x2="1546" y2="862" stroke="rgba(255,255,255,0.16)" stroke-width="1.2"/>
<line x1="1598" y1="840" x2="1580" y2="862" stroke="rgba(255,255,255,0.16)" stroke-width="1.2"/>
<line x1="1632" y1="840" x2="1614" y2="862" stroke="rgba(255,255,255,0.16)" stroke-width="1.2"/>
<line x1="1666" y1="840" x2="1648" y2="862" stroke="rgba(255,255,255,0.16)" stroke-width="1.2"/>
<line x1="1700" y1="840" x2="1682" y2="862" stroke="rgba(255,255,255,0.16)" stroke-width="1.2"/>
<line x1="1734" y1="840" x2="1716" y2="862" stroke="rgba(255,255,255,0.16)" stroke-width="1.2"/>
<polyline points="1600,400 1640,400" fill="none" stroke="rgba(232,72,28,0.72)" stroke-width="2"/>
<polyline points="1620,388 1640,400 1620,412" fill="none" stroke="rgba(232,72,28,0.72)" stroke-width="2"/>
<polyline points="1600,620 1640,620" fill="none" stroke="rgba(232,72,28,0.72)" stroke-width="2"/>
<polyline points="1620,608 1640,620 1620,632" fill="none" stroke="rgba(232,72,28,0.72)" stroke-width="2"/>
</svg>
